# Blender v2.93.1 OBJ File: 'untitled.blend'
# www.blender.org
mtllib chank.mtl
o Cylinder
v 6.784541 -3.919027 -5.851425
v 6.784541 7.783823 -5.851425
v 11.852024 -3.919027 -2.925712
v 11.852024 7.783823 -2.925712
v 11.852024 -3.919027 2.925713
v 11.852024 7.783823 2.925713
v 6.784540 -3.919027 5.851425
v 6.784540 7.783823 5.851425
v 1.717058 -3.919027 2.925712
v 1.717058 7.783823 2.925712
v 1.717058 -3.919027 -2.925712
v 1.717058 7.783823 -2.925712
v 6.784541 6.745238 -5.851425
v 11.852024 6.745238 -2.925712
v 11.852024 6.745238 2.925713
v 6.784540 6.745238 5.851425
v 1.717058 6.745238 2.925712
v 1.717058 6.745238 -2.925712
v 11.852024 4.322168 -2.925712
v 11.852024 4.322168 2.925713
v 6.784540 4.322168 5.851425
v 1.717058 4.322168 2.925712
v 1.717058 4.322168 -2.925712
v 6.784541 4.322168 -5.851425
v 11.852024 3.416487 -2.925712
v 11.852024 3.416487 2.925713
v 6.784540 3.416487 5.851425
v 1.717058 3.416487 2.925712
v 1.717058 3.416487 -2.925712
v 6.784541 3.416487 -5.851425
v 11.852024 2.079361 -2.925712
v 11.852024 2.079361 2.925713
v 6.784540 2.079361 5.851425
v 1.717058 2.079361 2.925712
v 1.717058 2.079361 -2.925712
v 6.784541 2.079360 -5.851425
v 11.852024 1.431086 -2.925712
v 11.852024 1.431086 2.925713
v 6.784540 1.431086 5.851425
v 1.717058 1.431086 2.925712
v 1.717058 1.431086 -2.925712
v 6.784541 1.431086 -5.851425
v 6.784541 6.060869 -5.851425
v 11.852024 6.491254 -2.925712
v 11.852024 6.128901 2.925713
v 6.784540 6.465138 5.851425
v 1.717058 5.962377 2.925712
v 1.717058 6.465138 -2.925712
vt 1.000000 0.955627
vt 1.000000 1.000000
vt 0.833333 1.000000
vt 0.833333 0.955627
vt 0.666667 1.000000
vt 0.666667 0.955627
vt 0.500000 1.000000
vt 0.500000 0.955627
vt 0.333333 1.000000
vt 0.333333 0.955627
vt 0.457846 0.370000
vt 0.250000 0.490000
vt 0.042154 0.370000
vt 0.042154 0.130000
vt 0.250000 0.010000
vt 0.457846 0.130000
vt 0.166667 1.000000
vt 0.166667 0.955627
vt -0.000000 1.000000
vt -0.000000 0.955627
vt 0.750000 0.490000
vt 0.957846 0.370000
vt 0.957846 0.130000
vt 0.750000 0.010000
vt 0.542154 0.130000
vt 0.542154 0.370000
vt 0.166667 0.943660
vt -0.000000 0.943660
vt 0.333333 0.943660
vt 0.500000 0.943660
vt 0.666667 0.943660
vt 0.833333 0.943660
vt 1.000000 0.943660
vt 1.000000 0.813407
vt 1.000000 0.852102
vt 0.833333 0.852102
vt 0.833333 0.813407
vt 0.666667 0.852102
vt 0.666667 0.813407
vt 0.500000 0.852102
vt 0.500000 0.813407
vt 0.333333 0.852102
vt 0.333333 0.813407
vt 0.166667 0.852102
vt 0.166667 0.813407
vt -0.000000 0.852102
vt -0.000000 0.813407
vt 0.166667 0.756279
vt -0.000000 0.756279
vt 0.333333 0.756279
vt 0.500000 0.756279
vt 0.666667 0.756279
vt 0.833333 0.756279
vt 1.000000 0.756279
vt 1.000000 0.728582
vt 0.833333 0.728582
vt 0.666667 0.728582
vt 0.500000 0.728582
vt 0.333333 0.728582
vt 0.166667 0.728582
vt -0.000000 0.728582
vt 0.166667 0.500000
vt -0.000000 0.500000
vt 0.333333 0.500000
vt 0.500000 0.500000
vt 0.666667 0.500000
vt 0.833333 0.500000
vt 1.000000 0.500000
vn 0.5000 0.0000 -0.8660
vn 1.0000 0.0000 0.0000
vn 0.5000 0.0000 0.8660
vn -0.5000 0.0000 0.8660
vn 0.0000 1.0000 0.0000
vn -1.0000 0.0000 0.0000
vn -0.5000 0.0000 -0.8660
vn 0.0000 -1.0000 0.0000
usemtl Material.001
s off
f 13/1/1 2/2/1 4/3/1 14/4/1
f 14/4/2 4/3/2 6/5/2 15/6/2
f 15/6/3 6/5/3 8/7/3 16/8/3
f 16/8/4 8/7/4 10/9/4 17/10/4
f 4/11/5 2/12/5 12/13/5 10/14/5 8/15/5 6/16/5
f 17/10/6 10/9/6 12/17/6 18/18/6
f 18/18/7 12/17/7 2/19/7 13/20/7
f 1/21/8 3/22/8 5/23/8 7/24/8 9/25/8 11/26/8
f 48/27/7 18/18/7 13/20/7 43/28/7
f 47/29/6 17/10/6 18/18/6 48/27/6
f 46/30/4 16/8/4 17/10/4 47/29/4
f 45/31/3 15/6/3 16/8/3 46/30/3
f 44/32/2 14/4/2 15/6/2 45/31/2
f 43/33/1 13/1/1 14/4/1 44/32/1
f 30/34/1 24/35/1 19/36/1 25/37/1
f 25/37/2 19/36/2 20/38/2 26/39/2
f 26/39/3 20/38/3 21/40/3 27/41/3
f 27/41/4 21/40/4 22/42/4 28/43/4
f 28/43/6 22/42/6 23/44/6 29/45/6
f 29/45/7 23/44/7 24/46/7 30/47/7
f 35/48/7 29/45/7 30/47/7 36/49/7
f 34/50/6 28/43/6 29/45/6 35/48/6
f 33/51/4 27/41/4 28/43/4 34/50/4
f 32/52/3 26/39/3 27/41/3 33/51/3
f 31/53/2 25/37/2 26/39/2 32/52/2
f 36/54/1 30/34/1 25/37/1 31/53/1
f 42/55/1 36/54/1 31/53/1 37/56/1
f 37/56/2 31/53/2 32/52/2 38/57/2
f 38/57/3 32/52/3 33/51/3 39/58/3
f 39/58/4 33/51/4 34/50/4 40/59/4
f 40/59/6 34/50/6 35/48/6 41/60/6
f 41/60/7 35/48/7 36/49/7 42/61/7
f 11/62/7 41/60/7 42/61/7 1/63/7
f 9/64/6 40/59/6 41/60/6 11/62/6
f 7/65/4 39/58/4 40/59/4 9/64/4
f 5/66/3 38/57/3 39/58/3 7/65/3
f 3/67/2 37/56/2 38/57/2 5/66/2
f 1/68/1 42/55/1 37/56/1 3/67/1
f 24/35/1 43/33/1 44/32/1 19/36/1
f 19/36/2 44/32/2 45/31/2 20/38/2
f 20/38/3 45/31/3 46/30/3 21/40/3
f 21/40/4 46/30/4 47/29/4 22/42/4
f 22/42/6 47/29/6 48/27/6 23/44/6
f 23/44/7 48/27/7 43/28/7 24/46/7
