# Blender v2.93.1 OBJ File: 'untitled.blend'
# www.blender.org
mtllib coin.mtl
o Cylinder.001_Cylinder.005
v 6.654968 8.791765 -1.666834
v 6.565067 8.791765 -1.666834
v 6.654968 8.739429 -1.827907
v 6.565067 8.739429 -1.827907
v 6.654968 8.602412 -1.927455
v 6.565067 8.602412 -1.927455
v 6.654968 8.433051 -1.927455
v 6.565067 8.433051 -1.927455
v 6.654968 8.296034 -1.827907
v 6.565067 8.296034 -1.827907
v 6.654968 8.243698 -1.666834
v 6.565067 8.243698 -1.666834
v 6.654968 8.296034 -1.505762
v 6.565067 8.296034 -1.505762
v 6.654968 8.433051 -1.406213
v 6.565067 8.433051 -1.406213
v 6.654968 8.602412 -1.406213
v 6.565067 8.602412 -1.406213
v 6.654968 8.739429 -1.505762
v 6.565067 8.739429 -1.505762
v 6.654968 8.895994 -1.666834
v 6.654968 8.823752 -1.889172
v 6.565067 8.823752 -1.889172
v 6.565067 8.895994 -1.666834
v 6.654968 8.634622 -2.026584
v 6.565067 8.634622 -2.026584
v 6.654968 8.400842 -2.026584
v 6.565067 8.400842 -2.026584
v 6.654968 8.211711 -1.889172
v 6.565067 8.211711 -1.889172
v 6.654968 8.139469 -1.666834
v 6.565067 8.139469 -1.666834
v 6.654968 8.211711 -1.444497
v 6.565067 8.211711 -1.444497
v 6.654968 8.400842 -1.307085
v 6.565067 8.400842 -1.307085
v 6.654968 8.634622 -1.307085
v 6.565067 8.634622 -1.307085
v 6.654968 8.823752 -1.444497
v 6.565067 8.823752 -1.444497
v 6.654968 8.895994 -1.666834
v 6.654968 8.823752 -1.889172
v 6.654968 8.634622 -2.026584
v 6.654968 8.400842 -2.026584
v 6.654968 8.211711 -1.889172
v 6.654968 8.139469 -1.666834
v 6.654968 8.211711 -1.444497
v 6.654968 8.400842 -1.307085
v 6.654968 8.634622 -1.307085
v 6.654968 8.823752 -1.444497
v 6.654968 8.791765 -1.666834
v 6.654968 8.739429 -1.827907
v 6.654968 8.602412 -1.927455
v 6.654968 8.433051 -1.927455
v 6.654968 8.296034 -1.827907
v 6.654968 8.243698 -1.666834
v 6.654968 8.296034 -1.505762
v 6.654968 8.433051 -1.406213
v 6.654968 8.602412 -1.406213
v 6.654968 8.739429 -1.505762
v 6.654968 8.895994 -1.666834
v 6.654968 8.823752 -1.889172
v 6.654968 8.634622 -2.026584
v 6.654968 8.400842 -2.026584
v 6.654968 8.211711 -1.889172
v 6.654968 8.139469 -1.666834
v 6.654968 8.211711 -1.444497
v 6.654968 8.400842 -1.307085
v 6.654968 8.634622 -1.307085
v 6.654968 8.823752 -1.444497
v 6.654968 8.791765 -1.666834
v 6.654968 8.739429 -1.827907
v 6.654968 8.602412 -1.927455
v 6.654968 8.433051 -1.927455
v 6.654968 8.296034 -1.827907
v 6.654968 8.243698 -1.666834
v 6.654968 8.296034 -1.505762
v 6.654968 8.433051 -1.406213
v 6.654968 8.602412 -1.406213
v 6.654968 8.739429 -1.505762
v 6.664968 8.895994 -1.666834
v 6.664968 8.823752 -1.889172
v 6.664968 8.634622 -2.026584
v 6.664968 8.400842 -2.026584
v 6.664968 8.211711 -1.889172
v 6.664968 8.139469 -1.666834
v 6.664968 8.211711 -1.444497
v 6.664968 8.400842 -1.307085
v 6.664968 8.634622 -1.307085
v 6.664968 8.823752 -1.444497
v 6.664968 8.791765 -1.666834
v 6.664968 8.739429 -1.827907
v 6.664968 8.602412 -1.927455
v 6.664968 8.433051 -1.927455
v 6.664968 8.296034 -1.827907
v 6.664968 8.243698 -1.666834
v 6.664968 8.296034 -1.505762
v 6.664968 8.433051 -1.406213
v 6.664968 8.602412 -1.406213
v 6.664968 8.739429 -1.505762
v 6.555067 8.823752 -1.889172
v 6.555067 8.895994 -1.666834
v 6.555067 8.634622 -2.026584
v 6.555067 8.400842 -2.026584
v 6.555067 8.211711 -1.889172
v 6.555067 8.139469 -1.666834
v 6.555067 8.211711 -1.444497
v 6.555067 8.400842 -1.307085
v 6.555067 8.634622 -1.307085
v 6.555067 8.823752 -1.444497
v 6.555067 8.739429 -1.827907
v 6.555067 8.791765 -1.666834
v 6.555067 8.602412 -1.927455
v 6.555067 8.433051 -1.927455
v 6.555067 8.296034 -1.827907
v 6.555067 8.243698 -1.666834
v 6.555067 8.296034 -1.505762
v 6.555067 8.433051 -1.406213
v 6.555067 8.602412 -1.406213
v 6.555067 8.739429 -1.505762
vt 1.000000 0.500000
vt 0.900000 0.500000
vt 0.900000 1.000000
vt 1.000000 1.000000
vt 0.800000 0.500000
vt 0.800000 1.000000
vt 0.700000 0.500000
vt 0.700000 1.000000
vt 0.600000 0.500000
vt 0.600000 1.000000
vt 0.500000 0.500000
vt 0.500000 1.000000
vt 0.400000 0.500000
vt 0.400000 1.000000
vt 0.300000 0.500000
vt 0.300000 1.000000
vt 0.200000 0.500000
vt 0.200000 1.000000
vt 0.352197 0.390663
vt 0.415359 0.303728
vt 0.415359 0.196272
vt 0.352197 0.109337
vt 0.250000 0.076132
vt 0.147803 0.109337
vt 0.084641 0.196272
vt 0.084641 0.303728
vt 0.147803 0.390663
vt 0.250000 0.423869
vt 0.100000 0.500000
vt 0.100000 1.000000
vt -0.000000 0.500000
vt -0.000000 1.000000
vt 0.750000 0.423869
vt 0.647803 0.390663
vt 0.584641 0.303728
vt 0.584641 0.196272
vt 0.647803 0.109337
vt 0.750000 0.076132
vt 0.852197 0.109337
vt 0.915359 0.196272
vt 0.915359 0.303728
vt 0.852197 0.390663
vt 0.852197 0.390663
vt 0.750000 0.423869
vt 0.352197 0.109337
vt 0.250000 0.076132
vt 1.000000 0.500000
vt 0.900000 0.500000
vt 0.250000 0.423869
vt 0.352197 0.390663
vt 0.300000 0.500000
vt 0.200000 0.500000
vt 0.900000 1.000000
vt 1.000000 1.000000
vt 0.800000 0.500000
vt 0.700000 0.500000
vt 0.200000 1.000000
vt 0.300000 1.000000
vt 0.584641 0.303728
vt 0.584641 0.196272
vt 0.700000 1.000000
vt 0.800000 1.000000
vt 0.852197 0.109337
vt 0.915359 0.196272
vt 0.084641 0.196272
vt 0.084641 0.303728
vt 0.100000 0.500000
vt -0.000000 0.500000
vt 0.415359 0.196272
vt 0.600000 0.500000
vt 0.500000 0.500000
vt -0.000000 1.000000
vt 0.100000 1.000000
vt 0.647803 0.109337
vt 0.500000 1.000000
vt 0.600000 1.000000
vt 0.915359 0.303728
vt 0.147803 0.109337
vt 0.400000 0.500000
vt 0.400000 0.500000
vt 0.300000 0.500000
vt 0.852197 0.109337
vt 0.915359 0.196272
vt 0.500000 0.500000
vt 0.915359 0.303728
vt 0.750000 0.423869
vt 0.647803 0.390663
vt 0.647803 0.390663
vt 0.600000 0.500000
vt 0.852197 0.390663
vt 0.584641 0.303728
vt 0.700000 0.500000
vt 0.750000 0.076132
vt 0.852197 0.390663
vt 0.750000 0.423869
vt 0.584641 0.303728
vt 0.584641 0.196272
vt 0.584641 0.196272
vt 0.800000 0.500000
vt 0.800000 0.500000
vt 0.700000 0.500000
vt 0.100000 0.500000
vt 0.100000 0.500000
vt -0.000000 0.500000
vt -0.000000 0.500000
vt 0.647803 0.109337
vt 0.647803 0.109337
vt 0.900000 0.500000
vt 0.900000 0.500000
vt 0.200000 0.500000
vt 0.200000 0.500000
vt 0.750000 0.076132
vt 0.750000 0.076132
vt 1.000000 0.500000
vt 1.000000 0.500000
vt 0.300000 0.500000
vt 0.891068 0.444164
vt 0.750000 0.490000
vt 0.915359 0.303728
vt 0.978254 0.324164
vt 0.915359 0.196272
vt 0.978254 0.175836
vt 0.852197 0.109337
vt 0.891068 0.055836
vt 0.750000 0.010000
vt 0.608932 0.055836
vt 0.521746 0.175836
vt 0.521746 0.324164
vt 0.647803 0.390663
vt 0.608932 0.444164
vt 0.600000 0.500000
vt 0.500000 0.500000
vt 0.400000 0.500000
vt 0.250000 0.490000
vt 0.391068 0.444164
vt 0.478254 0.324164
vt 0.415359 0.303728
vt 0.478254 0.175836
vt 0.391068 0.055836
vt 0.250000 0.010000
vt 0.108932 0.055836
vt 0.021746 0.175836
vt 0.021746 0.324164
vt 0.108932 0.444164
vt 0.147803 0.390663
vt 0.400000 1.000000
vn 0.0000 0.9511 -0.3090
vn 0.0000 0.5878 -0.8090
vn 0.0000 0.0000 -1.0000
vn 0.0000 -0.5878 -0.8090
vn 0.0000 -0.9511 -0.3090
vn 0.0000 -0.9511 0.3090
vn 0.0000 -0.5878 0.8090
vn 0.0000 0.0000 1.0000
vn -1.0000 0.0000 0.0000
vn 0.0000 0.5878 0.8090
vn 0.0000 0.9511 0.3090
vn 1.0000 0.0000 0.0000
usemtl Material.004
s off
f 21/1/1 22/2/1 23/3/1 24/4/1
f 22/2/2 25/5/2 26/6/2 23/3/2
f 25/5/3 27/7/3 28/8/3 26/6/3
f 27/7/4 29/9/4 30/10/4 28/8/4
f 29/9/5 31/11/5 32/12/5 30/10/5
f 31/11/6 33/13/6 34/14/6 32/12/6
f 33/13/7 35/15/7 36/16/7 34/14/7
f 35/15/8 37/17/8 38/18/8 36/16/8
f 4/19/9 6/20/9 8/21/9 10/22/9 12/23/9 14/24/9 16/25/9 18/26/9 20/27/9 2/28/9
f 37/17/10 39/29/10 40/30/10 38/18/10
f 39/29/11 21/31/11 24/32/11 40/30/11
f 1/33/12 19/34/12 17/35/12 15/36/12 13/37/12 11/38/12 9/39/12 7/40/12 5/41/12 3/42/12
f 3/42/8 52/43/8 51/44/8 1/33/8
f 10/22/11 115/45/11 116/46/11 12/23/11
f 21/1/8 41/47/8 42/48/8 22/2/8
f 2/28/6 112/49/6 111/50/6 4/19/6
f 35/15/8 48/51/8 49/52/8 37/17/8
f 23/3/1 101/53/1 102/54/1 24/4/1
f 25/5/8 43/55/8 44/56/8 27/7/8
f 38/18/8 109/57/8 108/58/8 36/16/8
f 17/35/8 59/59/8 58/60/8 15/36/8
f 28/8/3 104/61/3 103/62/3 26/6/3
f 9/39/8 55/63/8 54/64/8 7/40/8
f 16/25/3 118/65/3 119/66/3 18/26/3
f 39/29/8 50/67/8 41/68/8 21/31/8
f 8/21/10 114/69/10 115/45/10 10/22/10
f 29/9/8 45/70/8 46/71/8 31/11/8
f 24/32/11 102/72/11 110/73/11 40/30/11
f 15/36/8 58/60/8 57/74/8 13/37/8
f 32/12/5 106/75/5 105/76/5 30/10/5
f 7/40/8 54/64/8 53/77/8 5/41/8
f 14/24/2 117/78/2 118/65/2 16/25/2
f 47/79/8 67/80/8 68/81/8 48/51/8
f 55/63/8 75/82/8 74/83/8 54/64/8
f 46/71/8 66/84/8 67/80/8 47/79/8
f 54/64/8 74/83/8 73/85/8 53/77/8
f 51/44/8 71/86/8 80/87/8 60/88/8
f 45/70/8 65/89/8 66/84/8 46/71/8
f 53/77/8 73/85/8 72/90/8 52/43/8
f 60/88/8 80/87/8 79/91/8 59/59/8
f 44/56/8 64/92/8 65/89/8 45/70/8
f 52/43/8 72/90/8 71/86/8 51/44/8
f 11/38/8 56/93/8 55/63/8 9/39/8
f 31/11/8 46/71/8 47/79/8 33/13/8
f 19/34/8 60/88/8 59/59/8 17/35/8
f 5/41/8 53/77/8 52/43/8 3/42/8
f 27/7/8 44/56/8 45/70/8 29/9/8
f 37/17/8 49/52/8 50/67/8 39/29/8
f 13/37/8 57/74/8 56/93/8 11/38/8
f 1/33/8 51/44/8 60/88/8 19/34/8
f 22/2/8 42/48/8 43/55/8 25/5/8
f 33/13/8 47/79/8 48/51/8 35/15/8
f 72/90/6 92/94/6 91/95/6 71/86/6
f 79/91/3 99/96/3 98/97/3 78/98/3
f 63/99/3 83/100/3 84/101/3 64/92/3
f 70/102/11 90/103/11 81/104/11 61/105/11
f 78/98/2 98/97/2 97/106/2 77/107/2
f 62/108/2 82/109/2 83/100/2 63/99/2
f 69/110/10 89/111/10 90/103/10 70/102/10
f 77/107/1 97/106/1 96/112/1 76/113/1
f 61/114/1 81/115/1 82/109/1 62/108/1
f 68/81/8 88/116/8 89/111/8 69/110/8
f 56/93/8 76/113/8 75/82/8 55/63/8
f 48/51/8 68/81/8 69/110/8 49/52/8
f 41/47/8 61/114/8 62/108/8 42/48/8
f 57/74/8 77/107/8 76/113/8 56/93/8
f 49/52/8 69/110/8 70/102/8 50/67/8
f 42/48/8 62/108/8 63/99/8 43/55/8
f 58/60/8 78/98/8 77/107/8 57/74/8
f 50/67/8 70/102/8 61/105/8 41/68/8
f 43/55/8 63/99/8 64/92/8 44/56/8
f 59/59/8 79/91/8 78/98/8 58/60/8
f 92/94/12 82/117/12 81/118/12 91/95/12
f 93/119/12 83/120/12 82/117/12 92/94/12
f 94/121/12 84/122/12 83/120/12 93/119/12
f 95/123/12 85/124/12 84/122/12 94/121/12
f 96/112/12 86/125/12 85/124/12 95/123/12
f 97/106/12 87/126/12 86/125/12 96/112/12
f 98/97/12 88/127/12 87/126/12 97/106/12
f 99/96/12 89/128/12 88/127/12 98/97/12
f 100/129/12 90/130/12 89/128/12 99/96/12
f 91/95/12 81/118/12 90/130/12 100/129/12
f 64/92/4 84/101/4 85/131/4 65/89/4
f 80/87/4 100/129/4 99/96/4 79/91/4
f 73/85/7 93/119/7 92/94/7 72/90/7
f 65/89/5 85/131/5 86/132/5 66/84/5
f 71/86/5 91/95/5 100/129/5 80/87/5
f 74/83/8 94/121/8 93/119/8 73/85/8
f 66/84/6 86/132/6 87/133/6 67/80/6
f 75/82/10 95/123/10 94/121/10 74/83/10
f 67/80/7 87/133/7 88/116/7 68/81/7
f 76/113/11 96/112/11 95/123/11 75/82/11
f 112/49/9 102/134/9 101/135/9 111/50/9
f 111/50/9 101/135/9 103/136/9 113/137/9
f 113/137/9 103/136/9 104/138/9 114/69/9
f 114/69/9 104/138/9 105/139/9 115/45/9
f 115/45/9 105/139/9 106/140/9 116/46/9
f 116/46/9 106/140/9 107/141/9 117/78/9
f 117/78/9 107/141/9 108/142/9 118/65/9
f 118/65/9 108/142/9 109/143/9 119/66/9
f 119/66/9 109/143/9 110/144/9 120/145/9
f 120/145/9 110/144/9 102/134/9 112/49/9
f 34/14/6 107/146/6 106/75/6 32/12/6
f 18/26/4 119/66/4 120/145/4 20/27/4
f 4/19/7 111/50/7 113/137/7 6/20/7
f 30/10/4 105/76/4 104/61/4 28/8/4
f 40/30/10 110/73/10 109/57/10 38/18/10
f 12/23/1 116/46/1 117/78/1 14/24/1
f 20/27/5 120/145/5 112/49/5 2/28/5
f 26/6/2 103/62/2 101/53/2 23/3/2
f 36/16/7 108/58/7 107/146/7 34/14/7
f 6/20/8 113/137/8 114/69/8 8/21/8
