# Blender v2.93.1 OBJ File: 'untitled.blend'
# www.blender.org
mtllib leg right.mtl
o hero_mesh.009_Yacamim.010
v 0.393781 1.140372 2.861626
v 0.387553 1.143890 2.867059
v 0.388024 1.145529 2.866265
v 0.394269 1.141986 2.860803
v 0.390917 1.147408 2.874607
v 0.391389 1.149060 2.873854
v 0.401902 1.148865 2.879850
v 0.402394 1.150510 2.879124
v 0.414074 1.147408 2.879716
v 0.414591 1.149031 2.878989
v 0.420301 1.143890 2.874284
v 0.420842 1.145472 2.873498
v 0.416937 1.140372 2.866735
v 0.417465 1.141958 2.865938
v 0.405952 1.138915 2.861493
v 0.406436 1.140512 2.860666
v 0.446118 1.123240 2.917485
v 0.458295 1.120299 2.914482
v 0.459414 1.129774 2.909415
v 0.447051 1.131211 2.913256
v 0.464523 1.116921 2.909320
v 0.465894 1.128810 2.903110
v 0.465943 1.113241 2.902511
v 0.462469 1.109622 2.894742
v 0.463982 1.123106 2.887884
v 0.467475 1.126678 2.895567
v 0.442057 1.138242 2.900995
v 0.435611 1.135475 2.909181
v 0.448483 1.135508 2.891644
v 0.455638 1.120391 2.883531
v 0.452273 1.130830 2.887154
v 0.430029 1.139549 2.892346
v 0.422491 1.133699 2.902850
v 0.432507 1.138988 2.882871
v 0.431753 1.121462 2.880333
v 0.433558 1.133004 2.879233
v 0.410304 1.132272 2.897400
v 0.420204 1.121761 2.878365
v 0.389531 1.134221 2.884466
v 0.382909 1.133590 2.877641
v 0.380286 1.115050 2.887112
v 0.387218 1.117354 2.893098
v 0.382301 1.131093 2.871444
v 0.379580 1.112056 2.881163
v 0.385546 1.128080 2.867249
v 0.394673 1.124423 2.866287
v 0.392310 1.107411 2.874986
v 0.382887 1.109413 2.876781
v 0.402143 1.114082 2.890061
v 0.398812 1.118970 2.898782
v 0.404809 1.108036 2.878952
v 0.408970 1.120264 2.903528
v 0.413694 1.115307 2.894980
v 0.424653 1.116299 2.899318
v 0.421143 1.121690 2.908973
v 0.418798 1.109431 2.884738
v 0.430347 1.109132 2.886707
v 0.447573 1.117195 2.906108
v 0.434262 1.123460 2.915294
v 0.454231 1.108060 2.889903
v 0.406713 1.122509 2.871526
v 0.400666 1.133436 2.891439
v 0.439806 1.245995 2.835432
v 0.425815 1.249403 2.835836
v 0.447999 1.238695 2.824400
v 0.443525 1.235743 2.816306
v 0.428758 1.235290 2.808491
v 0.417814 1.238094 2.809087
v 0.410264 1.243816 2.817207
v 0.413578 1.248501 2.828287
v 0.423404 1.240662 2.839587
v 0.411331 1.239802 2.832202
v 0.408036 1.235257 2.821415
v 0.415448 1.229689 2.813545
v 0.426426 1.226915 2.813025
v 0.440823 1.227362 2.820654
v 0.445183 1.230315 2.828700
v 0.437181 1.237333 2.839243
v 0.433967 1.226729 2.843909
v 0.441736 1.220058 2.833962
v 0.437514 1.217102 2.825977
v 0.423572 1.216663 2.818575
v 0.412551 1.219401 2.819001
v 0.405309 1.224779 2.826565
v 0.408581 1.229154 2.836994
v 0.420452 1.229961 2.844178
v 0.417947 1.143406 2.865211
v 0.421336 1.146916 2.872781
v 0.406877 1.141970 2.859911
v 0.394714 1.143458 2.860052
v 0.388453 1.147024 2.865541
v 0.391820 1.150567 2.873167
v 0.402842 1.152012 2.878462
v 0.415063 1.150512 2.878325
v 0.434902 1.312762 2.808459
v 0.422963 1.297662 2.773670
v 0.466136 1.298863 2.792617
v 0.412526 1.304900 2.784153
v 0.459065 1.295534 2.783250
v 0.417471 1.311155 2.798563
v 0.454608 1.308781 2.808043
v 0.436522 1.294606 2.772770
vt 0.967188 0.758342
vt 0.969196 0.745027
vt 0.966385 0.744855
vt 0.964379 0.758231
vt 0.970940 0.870187
vt 0.968639 0.856920
vt 0.965834 0.857113
vt 0.968136 0.870442
vt 0.964472 0.839035
vt 0.961681 0.839181
vt 0.960561 0.821103
vt 0.957786 0.821202
vt 0.958899 0.807762
vt 0.956129 0.807754
vt 0.960126 0.794373
vt 0.957349 0.794344
vt 0.963507 0.776333
vt 0.960717 0.776223
vt 0.694861 0.366468
vt 0.674865 0.351553
vt 0.669016 0.367783
vt 0.685631 0.377715
vt 0.657004 0.346442
vt 0.656654 0.367114
vt 0.640061 0.347259
vt 0.623350 0.357199
vt 0.636257 0.375991
vt 0.646524 0.370145
vt 0.674622 0.401410
vt 0.691416 0.397698
vt 0.655887 0.401228
vt 0.627757 0.386359
vt 0.644268 0.397200
vt 0.672388 0.427886
vt 0.701109 0.419496
vt 0.655502 0.433269
vt 0.617118 0.423485
vt 0.642692 0.431512
vt 0.667704 0.488261
vt 0.711178 0.439356
vt 0.659554 0.485584
vt 0.609914 0.441608
vt 0.652713 0.490542
vt 0.722659 0.478974
vt 0.727155 0.494287
vt 0.758971 0.478656
vt 0.751427 0.464278
vt 0.730550 0.505041
vt 0.763974 0.488984
vt 0.595877 0.504239
vt 0.598595 0.487998
vt 0.568299 0.476534
vt 0.562189 0.492395
vt 0.712230 0.935703
vt 0.694189 0.943647
vt 0.739082 0.954047
vt 0.739147 0.932051
vt 0.688328 0.956339
vt 0.691483 0.968659
vt 0.708527 0.979968
vt 0.735918 0.980843
vt 0.762554 0.929374
vt 0.765336 0.952064
vt 0.789999 0.950916
vt 0.790420 0.926702
vt 0.767586 0.978823
vt 0.791615 0.983404
vt 0.839862 0.953594
vt 0.820796 0.922817
vt 0.840650 0.994829
vt 0.867103 0.943283
vt 0.845592 0.927145
vt 0.875372 0.959605
vt 0.860377 0.990454
vt 0.873013 0.975860
vt 0.577292 0.455664
vt 0.603062 0.466255
vt 0.594539 0.413176
vt 0.587633 0.431873
vt 0.610791 0.372482
vt 0.740672 0.444768
vt 0.716057 0.457886
vt 0.731500 0.427872
vt 0.721153 0.407436
vt 0.709728 0.384006
vt 0.647409 0.500783
vt 0.674900 0.497324
vt 0.680981 0.507180
vt 0.642949 0.511491
vt 0.684324 0.514952
vt 0.641005 0.519728
vt 0.594045 0.514294
vt 0.558817 0.502306
vt 0.695110 0.853528
vt 0.679272 0.854697
vt 0.682400 0.877737
vt 0.698242 0.876040
vt 0.686249 0.897426
vt 0.701259 0.895299
vt 0.698904 0.727830
vt 0.683858 0.726163
vt 0.680382 0.745916
vt 0.696280 0.747145
vt 0.678354 0.764062
vt 0.694212 0.765183
vt 0.676409 0.790924
vt 0.692149 0.791295
vt 0.675897 0.806555
vt 0.691589 0.806764
vt 0.677025 0.831593
vt 0.692734 0.830860
vt 0.712023 0.829925
vt 0.710844 0.807031
vt 0.711465 0.791783
vt 0.713611 0.766524
vt 0.715587 0.748387
vt 0.717533 0.729576
vt 0.717496 0.874215
vt 0.719844 0.892979
vt 0.714500 0.852101
vt 0.954815 0.794317
vt 0.953601 0.807746
vt 0.958170 0.776123
vt 0.961815 0.758130
vt 0.963821 0.744697
vt 0.963275 0.857289
vt 0.965577 0.870674
vt 0.959134 0.839314
vt 0.955253 0.821292
vt 0.598649 0.806773
vt 0.599326 0.830507
vt 0.601513 0.855992
vt 0.604223 0.870159
vt 0.610707 0.898812
vt 0.599960 0.768129
vt 0.601190 0.772557
vt 0.598838 0.783029
vt 0.680840 0.808061
vt 0.680457 0.791055
vt 0.681511 0.776360
vt 0.680097 0.756544
vt 0.676664 0.742216
vt 0.671420 0.728648
vt 0.594788 0.758764
vt 0.665482 0.716683
vt 0.689158 0.874036
vt 0.685486 0.854645
vt 0.683695 0.843323
vt 0.681893 0.825039
vn -0.1536 -0.2946 -0.9432
vn -0.8974 0.2844 -0.3372
vn -0.9504 0.1321 -0.2815
vn -0.3563 -0.3371 -0.8714
vn -0.5874 0.5582 0.5860
vn -0.6757 0.4569 0.5785
vn -0.2589 0.6274 0.7344
vn -0.1931 0.4461 0.8739
vn 0.0241 0.8323 0.5538
vn 0.3508 0.2899 0.8905
vn 0.6208 0.7370 -0.2673
vn 0.9376 -0.1748 0.3005
vn 0.4731 -0.3184 -0.8214
vn 0.6655 -0.5007 -0.5535
vn 0.2665 -0.4358 -0.8597
vn 0.1864 -0.4946 -0.8489
vn -0.0170 -0.3123 0.9498
vn 0.3461 -0.2231 0.9113
vn 0.4522 0.7663 0.4565
vn 0.1386 0.6921 0.7084
vn 0.7423 -0.2777 0.6097
vn 0.7104 0.6882 0.1472
vn 0.6691 -0.7006 0.2480
vn 0.4394 -0.8977 -0.0336
vn 0.7144 0.0344 -0.6989
vn 0.8720 0.3819 -0.3062
vn 0.1541 0.9704 0.1861
vn -0.1869 0.7672 0.6135
vn 0.3715 0.9065 -0.2008
vn 0.2896 -0.1918 -0.9377
vn 0.3952 0.5196 -0.7575
vn 0.0121 0.9611 0.2758
vn -0.2935 0.7155 0.6340
vn 0.4464 0.8422 -0.3023
vn 0.2152 -0.3090 -0.9264
vn 0.4211 0.1251 -0.8983
vn -0.2666 0.6573 0.7049
vn 0.3342 -0.4264 -0.8405
vn -0.5499 0.5009 0.6684
vn -0.8551 0.3892 0.3427
vn -0.8372 -0.0619 0.5434
vn -0.5328 -0.0616 0.8440
vn -0.9560 0.0695 -0.2852
vn -0.9345 -0.3531 -0.0438
vn -0.5251 -0.2304 -0.8193
vn -0.0098 -0.4017 -0.9157
vn -0.0274 -0.8835 -0.4675
vn -0.5077 -0.7214 -0.4710
vn -0.1008 -0.8838 0.4568
vn -0.4229 -0.1000 0.9006
vn 0.2080 -0.8984 -0.3868
vn -0.3912 -0.1813 0.9023
vn -0.3608 -0.3412 0.8680
vn 0.1343 -0.9462 -0.2944
vn -0.0106 -0.9822 -0.1877
vn -0.2810 -0.3930 0.8755
vn 0.0792 -0.9670 -0.2421
vn 0.3238 -0.4504 -0.8321
vn -0.3274 0.5689 0.7544
vn -0.1972 0.4351 0.8786
vn -0.1890 0.4312 0.8822
vn -0.7830 0.4032 0.4736
vn -0.7490 0.4229 0.5100
vn -0.9602 0.0931 -0.2635
vn -0.9561 0.1109 -0.2711
vn -0.4589 -0.3251 -0.8269
vn -0.5010 -0.2914 -0.8149
vn 0.0724 -0.4903 -0.8685
vn 0.1897 -0.5064 -0.8412
vn 0.7269 -0.4896 -0.4816
vn 0.6043 -0.5128 -0.6098
vn 0.9506 -0.3101 0.0102
vn 0.9436 -0.1775 0.2795
vn 0.4999 0.2223 0.8370
vn 0.5152 0.2119 0.8304
vn 0.4515 0.2704 0.8503
vn 0.9546 -0.1408 0.2626
vn 0.6327 -0.4918 -0.5982
vn 0.1828 -0.5052 -0.8435
vn -0.4409 -0.3415 -0.8300
vn -0.9631 0.0794 -0.2570
vn -0.7240 0.4125 0.5528
vn -0.1979 0.4357 0.8780
vn 0.6278 -0.4905 -0.6043
vn 0.9525 -0.1253 0.2774
vn 0.1725 -0.5040 -0.8463
vn -0.4532 -0.3384 -0.8247
vn -0.9645 0.0769 -0.2526
vn -0.7342 0.4076 0.5429
vn -0.2163 0.4378 0.8727
vn 0.4235 0.2860 0.8595
vn -0.0447 0.9100 0.4122
vn 0.5309 0.7568 0.3812
vn 0.9574 0.2848 -0.0471
vn 0.3562 0.1519 -0.9220
vn 0.4090 0.1148 -0.9053
vn -0.3545 0.1708 -0.9193
vn -0.7613 0.5371 -0.3633
vn -0.4740 0.8635 0.1724
usemtl Hero.001
s 1
f 1/1/1 2/2/2 3/3/3 4/4/4
f 2/5/2 5/6/5 6/7/6 3/8/3
f 5/6/5 7/9/7 8/10/8 6/7/6
f 7/9/7 9/11/9 10/12/10 8/10/8
f 9/11/9 11/13/11 12/14/12 10/12/10
f 11/13/11 13/15/13 14/16/14 12/14/12
f 13/15/13 15/17/15 16/18/16 14/16/14
f 15/17/15 1/1/1 4/4/4 16/18/16
f 17/19/17 18/20/18 19/21/19 20/22/20
f 18/20/18 21/23/21 22/24/22 19/21/19
f 23/25/23 24/26/24 25/27/25 26/28/26
f 20/22/20 19/21/19 27/29/27 28/30/28
f 19/21/19 22/24/22 29/31/29 27/29/27
f 26/28/26 25/27/25 30/32/30 31/33/31
f 28/30/28 27/29/27 32/34/32 33/35/33
f 27/29/27 29/31/29 34/36/34 32/34/32
f 31/33/31 30/32/30 35/37/35 36/38/36
f 33/35/33 32/34/32 9/39/9 37/40/37
f 32/34/32 34/36/34 11/41/11 9/39/9
f 36/38/36 35/37/35 38/42/38 13/43/13
f 39/44/39 40/45/40 41/46/41 42/47/42
f 40/45/40 43/48/43 44/49/44 41/46/41
f 45/50/45 46/51/46 47/52/47 48/53/48
f 42/54/42 41/55/41 49/56/49 50/57/50
f 41/55/41 44/58/44 49/56/49
f 48/59/48 47/60/47 51/61/51 49/56/49
f 52/62/52 53/63/49 54/64/49 55/65/53
f 53/63/49 56/66/54 57/67/55 54/64/49
f 55/65/53 54/64/49 58/68/49 59/69/56
f 54/64/49 57/67/55 60/70/57 58/68/49
f 59/69/56 58/68/49 18/71/18 17/72/17
f 58/68/49 21/73/21 18/71/18
f 58/68/49 60/70/57 24/74/24 23/75/23
f 51/76/51 47/52/47 46/51/46 61/77/58
f 57/78/55 56/79/54 38/42/38 35/37/35
f 60/80/57 57/78/55 35/37/35 30/32/30
f 24/26/24 60/80/57 30/32/30 25/27/25
f 42/47/42 50/81/50 62/82/59 39/44/39
f 52/83/52 55/84/53 33/35/33 37/40/37
f 55/84/53 59/85/56 28/30/28 33/35/33
f 59/85/56 17/19/17 20/22/20 28/30/28
f 13/43/13 38/42/38 61/77/58 15/86/15
f 37/40/37 9/39/9 7/87/7 62/82/59
f 50/81/50 52/83/52 37/40/37 62/82/59
f 50/57/50 49/56/49 53/63/49 52/62/52
f 49/56/49 51/61/51 56/66/54 53/63/49
f 38/42/38 56/79/54 51/76/51 61/77/58
f 39/44/39 62/82/59 7/87/7 5/88/5
f 61/77/58 46/51/46 1/89/1 15/86/15
f 40/45/40 39/44/39 5/88/5 2/90/2
f 43/48/43 40/45/40 2/90/2
f 46/51/46 45/50/45 2/91/2 1/89/1
f 45/50/45 43/92/43 2/91/2
f 44/93/44 43/92/43 45/50/45 48/53/48
f 49/56/49 44/58/44 48/59/48
f 21/73/21 58/68/49 23/75/23
f 22/24/22 21/23/21 23/25/23 26/28/26
f 29/31/29 22/24/22 26/28/26 31/33/31
f 34/36/34 29/31/29 31/33/31 36/38/36
f 11/41/11 34/36/34 36/38/36 13/43/13
f 71/94/60 64/95/61 70/96/62 72/97/63
f 72/97/63 70/96/62 69/98/64 73/99/65
f 73/100/65 69/101/64 68/102/66 74/103/67
f 74/103/67 68/102/66 67/104/68 75/105/69
f 75/105/69 67/104/68 66/106/70 76/107/71
f 76/107/71 66/106/70 65/108/72 77/109/73
f 77/109/73 65/108/72 63/110/74 78/111/75
f 71/94/60 78/111/75 63/110/74 64/95/61
f 79/112/76 80/113/77 77/109/73 78/111/75
f 81/114/78 76/107/71 77/109/73 80/113/77
f 82/115/79 75/105/69 76/107/71 81/114/78
f 83/116/80 74/103/67 75/105/69 82/115/79
f 84/117/81 73/100/65 74/103/67 83/116/80
f 85/118/82 72/97/63 73/99/65 84/119/81
f 86/120/83 71/94/60 72/97/63 85/118/82
f 79/112/76 78/111/75 71/94/60 86/120/83
f 12/14/12 14/16/14 87/121/84 88/122/85
f 16/18/16 89/123/86 87/121/84 14/16/14
f 4/4/4 90/124/87 89/123/86 16/18/16
f 3/3/3 91/125/88 90/124/87 4/4/4
f 6/7/6 92/126/89 91/127/88 3/8/3
f 8/10/8 93/128/90 92/126/89 6/7/6
f 10/12/10 94/129/91 93/128/90 8/10/8
f 12/14/12 88/122/85 94/129/91 10/12/10
f 88/122/85 87/121/84 81/114/78 80/113/77
f 89/123/86 82/115/79 81/114/78 87/121/84
f 90/124/87 83/116/80 82/115/79 89/123/86
f 91/125/88 84/117/81 83/116/80 90/124/87
f 92/126/89 85/118/82 84/119/81 91/127/88
f 93/128/90 86/120/83 85/118/82 92/126/89
f 94/129/91 79/112/76 86/120/83 93/128/90
f 88/122/85 80/113/77 79/112/76 94/129/91
f 95/130/92 101/131/93 97/132/94 99/133/95 102/134/96 96/135/97 98/136/98 100/137/99
f 64/138/61 95/130/92 100/137/99 70/139/62
f 70/139/62 100/137/99 98/136/98 69/140/64
f 69/141/64 98/136/98 96/135/97 68/142/66
f 68/143/66 96/135/97 102/144/96 67/145/68
f 67/146/68 102/134/96 99/133/95 66/147/70
f 66/147/70 99/133/95 97/132/94 65/148/72
f 65/148/72 97/132/94 101/131/93 63/149/74
f 63/149/74 101/131/93 95/130/92 64/138/61
