# Blender v2.93.1 OBJ File: 'untitled.blend'
# www.blender.org
mtllib leg left.mtl
o hero_mesh.010_Yacamim.011
v 1.045691 1.140372 3.613716
v 1.045787 1.141986 3.614668
v 1.042420 1.145529 3.607086
v 1.042327 1.143890 3.606168
v 1.048666 1.149060 3.601617
v 1.048555 1.147408 3.600736
v 1.060867 1.150510 3.601467
v 1.060726 1.148865 3.600602
v 1.071874 1.149031 3.606722
v 1.071711 1.147408 3.605844
v 1.075235 1.145472 3.614333
v 1.075075 1.143890 3.613393
v 1.068991 1.141958 3.619770
v 1.068847 1.140372 3.618825
v 1.056767 1.140512 3.619912
v 1.056676 1.138915 3.618959
v 1.116673 1.123240 3.585065
v 1.115740 1.131211 3.589294
v 1.125339 1.129774 3.597980
v 1.126456 1.120299 3.592913
v 1.128564 1.128810 3.606427
v 1.129934 1.116921 3.600216
v 1.128357 1.113241 3.606990
v 1.126825 1.126678 3.613935
v 1.120424 1.123106 3.619435
v 1.121936 1.109622 3.612576
v 1.103647 1.135475 3.588177
v 1.106051 1.138242 3.598316
v 1.107946 1.135508 3.609503
v 1.109495 1.130830 3.615170
v 1.111022 1.120391 3.619873
v 1.089081 1.133699 3.588400
v 1.091500 1.139549 3.601100
v 1.089761 1.138988 3.610738
v 1.089183 1.133004 3.614481
v 1.088009 1.121462 3.612723
v 1.075732 1.132272 3.588216
v 1.076704 1.121761 3.609650
v 1.051445 1.134221 3.591209
v 1.052979 1.117354 3.582404
v 1.044172 1.115050 3.584918
v 1.042567 1.133590 3.594613
v 1.041028 1.112056 3.590018
v 1.039407 1.131093 3.599979
v 1.040586 1.128080 3.605150
v 1.042185 1.109413 3.595384
v 1.049978 1.107411 3.600977
v 1.048461 1.124423 3.609864
v 1.065889 1.118970 3.582126
v 1.065241 1.114082 3.591439
v 1.062986 1.108036 3.602639
v 1.077101 1.120264 3.582096
v 1.090435 1.121690 3.582278
v 1.089556 1.116299 3.592514
v 1.077789 1.115307 3.591837
v 1.089415 1.109132 3.606350
v 1.078110 1.109431 3.603277
v 1.104996 1.123460 3.582064
v 1.113206 1.117195 3.595998
v 1.112427 1.108060 3.613500
v 1.061589 1.122509 3.610177
v 1.064481 1.133436 3.589568
v 1.076422 1.245995 3.656845
v 1.063899 1.249403 3.650591
v 1.079212 1.238695 3.670300
v 1.071748 1.235743 3.675761
v 1.055063 1.235290 3.676636
v 1.045386 1.238094 3.671490
v 1.041953 1.243816 3.660947
v 1.049622 1.248501 3.652291
v 1.063290 1.240662 3.646174
v 1.049231 1.239802 3.647794
v 1.041703 1.235257 3.656193
v 1.045115 1.229689 3.666451
v 1.054855 1.226915 3.671541
v 1.071126 1.227362 3.670679
v 1.078466 1.230315 3.665215
v 1.075644 1.237333 3.652283
v 1.074692 1.226729 3.646698
v 1.077554 1.220058 3.658990
v 1.070364 1.217102 3.664458
v 1.054602 1.216663 3.665306
v 1.044783 1.219401 3.660282
v 1.041396 1.224779 3.650373
v 1.048753 1.229154 3.642289
v 1.062544 1.229961 3.640767
v 1.075381 1.146916 3.615191
v 1.069122 1.143406 3.620632
v 1.056850 1.141970 3.620783
v 1.045875 1.143458 3.615537
v 1.042505 1.147024 3.607923
v 1.048768 1.150567 3.602422
v 1.060995 1.152012 3.602256
v 1.072024 1.150512 3.607523
v 1.078382 1.310668 3.688853
v 1.046836 1.296389 3.713381
v 1.060525 1.314667 3.680112
v 1.034847 1.299453 3.706817
v 1.029741 1.306737 3.692815
v 1.082384 1.300671 3.707861
v 1.071942 1.297331 3.713385
v 1.040377 1.313039 3.681753
vt 0.967188 0.758342
vt 0.964379 0.758231
vt 0.966385 0.744855
vt 0.969196 0.745027
vt 0.970940 0.870187
vt 0.968136 0.870442
vt 0.965834 0.857113
vt 0.968639 0.856920
vt 0.961681 0.839181
vt 0.964472 0.839035
vt 0.957786 0.821202
vt 0.960561 0.821103
vt 0.956129 0.807754
vt 0.958899 0.807762
vt 0.957349 0.794344
vt 0.960126 0.794373
vt 0.960717 0.776223
vt 0.963507 0.776333
vt 0.694861 0.366468
vt 0.685631 0.377715
vt 0.669016 0.367783
vt 0.674865 0.351553
vt 0.656654 0.367114
vt 0.657004 0.346442
vt 0.640061 0.347259
vt 0.646524 0.370145
vt 0.636257 0.375991
vt 0.623350 0.357199
vt 0.691416 0.397698
vt 0.674622 0.401410
vt 0.655887 0.401228
vt 0.644268 0.397200
vt 0.627757 0.386359
vt 0.701109 0.419496
vt 0.672388 0.427886
vt 0.655502 0.433269
vt 0.642692 0.431512
vt 0.617118 0.423485
vt 0.711178 0.439356
vt 0.667704 0.488261
vt 0.659554 0.485584
vt 0.652713 0.490542
vt 0.609914 0.441608
vt 0.722659 0.478974
vt 0.751427 0.464278
vt 0.758971 0.478656
vt 0.727155 0.494287
vt 0.763974 0.488984
vt 0.730550 0.505041
vt 0.595877 0.504239
vt 0.562189 0.492395
vt 0.568299 0.476534
vt 0.598595 0.487998
vt 0.712230 0.935703
vt 0.739147 0.932051
vt 0.739082 0.954047
vt 0.694189 0.943647
vt 0.688328 0.956339
vt 0.691483 0.968659
vt 0.735918 0.980843
vt 0.708527 0.979968
vt 0.762554 0.929374
vt 0.790420 0.926702
vt 0.789999 0.950916
vt 0.765336 0.952064
vt 0.791615 0.983404
vt 0.767586 0.978823
vt 0.820796 0.922817
vt 0.839862 0.953594
vt 0.840650 0.994829
vt 0.845592 0.927145
vt 0.867103 0.943283
vt 0.875372 0.959605
vt 0.873013 0.975860
vt 0.860377 0.990454
vt 0.577292 0.455664
vt 0.603062 0.466255
vt 0.594539 0.413176
vt 0.587633 0.431873
vt 0.610791 0.372482
vt 0.716057 0.457886
vt 0.740672 0.444768
vt 0.731500 0.427872
vt 0.721153 0.407436
vt 0.709728 0.384006
vt 0.647409 0.500783
vt 0.674900 0.497324
vt 0.680981 0.507180
vt 0.642949 0.511491
vt 0.684324 0.514952
vt 0.641005 0.519728
vt 0.594045 0.514294
vt 0.558817 0.502306
vt 0.608501 0.823865
vt 0.610084 0.834818
vt 0.613129 0.845459
vt 0.616384 0.854218
vt 0.609367 0.778807
vt 0.607490 0.782277
vt 0.607127 0.796846
vt 0.607568 0.810368
vt 0.695110 0.853528
vt 0.698242 0.876040
vt 0.682400 0.877737
vt 0.679272 0.854697
vt 0.701259 0.895299
vt 0.686249 0.897426
vt 0.698904 0.727830
vt 0.696280 0.747145
vt 0.680382 0.745916
vt 0.683858 0.726163
vt 0.694212 0.765183
vt 0.678354 0.764062
vt 0.692149 0.791295
vt 0.676409 0.790924
vt 0.691589 0.806764
vt 0.675897 0.806555
vt 0.692734 0.830860
vt 0.677025 0.831593
vt 0.712023 0.829925
vt 0.710844 0.807031
vt 0.711465 0.791783
vt 0.713611 0.766524
vt 0.715587 0.748387
vt 0.717533 0.729576
vt 0.717496 0.874215
vt 0.719844 0.892979
vt 0.714500 0.852101
vt 0.953601 0.807746
vt 0.954815 0.794317
vt 0.958170 0.776123
vt 0.961815 0.758130
vt 0.963821 0.744697
vt 0.965577 0.870674
vt 0.963275 0.857289
vt 0.959134 0.839314
vt 0.955253 0.821292
vt 0.655266 0.806732
vt 0.655630 0.816336
vt 0.656726 0.824587
vt 0.659106 0.832563
vt 0.661959 0.839550
vt 0.653260 0.759253
vt 0.656398 0.769952
vt 0.606045 0.767192
vt 0.656298 0.780304
vt 0.655674 0.786750
vt 0.655282 0.797122
vn -0.5362 -0.2946 0.7910
vn -0.6899 -0.3371 0.6406
vn -0.9806 0.1321 -0.1445
vn -0.9560 0.2845 -0.0717
vn -0.3695 0.4569 -0.8091
vn -0.2863 0.5582 -0.7788
vn 0.1925 0.4461 -0.8740
vn 0.0741 0.6274 -0.7751
vn 0.6929 0.2898 -0.6602
vn 0.2549 0.8323 -0.4922
vn 0.9769 -0.1751 0.1225
vn 0.4507 0.7370 0.5036
vn 0.3708 -0.5007 0.7822
vn 0.0835 -0.3184 0.9443
vn -0.1875 -0.4947 0.8486
vn -0.1199 -0.4358 0.8920
vn 0.3842 -0.3123 -0.8688
vn 0.4238 0.6921 -0.5843
vn 0.6022 0.7663 -0.2238
vn 0.6974 -0.2231 -0.6811
vn 0.7064 0.6882 0.1654
vn 0.9300 -0.2778 -0.2408
vn 0.7114 -0.7006 0.0565
vn 0.6622 0.3819 0.6447
vn 0.3540 0.0343 0.9346
vn 0.3845 -0.8977 0.2153
vn 0.0886 0.7672 -0.6352
vn 0.2181 0.9704 -0.1040
vn 0.2525 0.9065 0.3385
vn 0.0398 0.5196 0.8535
vn -0.1319 -0.1918 0.9725
vn 0.0006 0.7155 -0.6986
vn 0.1266 0.9612 -0.2450
vn 0.2778 0.8422 0.4621
vn 0.0040 0.1251 0.9921
vn -0.1945 -0.3090 0.9310
vn 0.0547 0.6573 -0.7516
vn -0.0505 -0.4264 0.9031
vn -0.2176 0.5009 -0.8377
vn -0.1282 -0.0616 -0.9898
vn -0.5308 -0.0619 -0.8452
vn -0.6315 0.3892 -0.6707
vn -0.8662 -0.3531 -0.3535
vn -0.9872 0.0695 -0.1436
vn -0.8211 -0.2304 0.5222
vn -0.6588 -0.7214 0.2136
vn -0.2216 -0.8836 0.4126
vn -0.3942 -0.4017 0.8266
vn -0.0047 -0.1000 -0.9950
vn 0.1008 -0.8838 -0.4568
vn 0.0259 -0.8984 0.4384
vn 0.0247 -0.1813 -0.9831
vn 0.0379 -0.3412 -0.9392
vn -0.0886 -0.9822 0.1658
vn -0.0021 -0.9462 0.3236
vn 0.1135 -0.3930 -0.9125
vn -0.0300 -0.9670 0.2530
vn -0.0564 -0.4504 0.8911
vn 0.0205 0.5689 -0.8221
vn -0.4688 0.8294 -0.3038
vn -0.8004 0.5624 0.2078
vn -0.6062 0.3791 0.6992
vn -0.4378 0.2271 0.8699
vn 0.4693 0.3420 0.8141
vn 0.7651 0.4740 0.4358
vn 0.6237 0.7727 -0.1179
vn 0.1197 0.9209 -0.3709
vn 0.1912 0.4350 -0.8799
vn -0.4649 0.4229 -0.7778
vn -0.5142 0.3994 -0.7590
vn 0.2014 0.4312 -0.8795
vn -0.9814 0.1109 -0.1564
vn -0.9807 0.0958 -0.1703
vn -0.7974 -0.2914 0.5285
vn -0.7701 -0.3183 0.5528
vn -0.1819 -0.5064 0.8429
vn -0.3015 -0.5003 0.8117
vn 0.2916 -0.5128 0.8075
vn 0.4573 -0.4797 0.7488
vn 0.9736 -0.1775 0.1435
vn 0.8663 -0.3214 0.3824
vn 0.8168 0.2120 -0.5365
vn 0.8057 0.2223 -0.5491
vn 0.7674 0.2704 -0.5814
vn 0.9765 -0.1408 0.1634
vn 0.3222 -0.4918 0.8089
vn -0.1891 -0.5049 0.8422
vn -0.7492 -0.3415 0.5674
vn -0.9819 0.0794 -0.1721
vn -0.4242 0.4125 -0.8062
vn 0.1899 0.4357 -0.8798
vn 0.9808 -0.1253 0.1492
vn 0.3152 -0.4905 0.8124
vn -0.1996 -0.5040 0.8403
vn -0.7581 -0.3384 0.5574
vn -0.9813 0.0769 -0.1767
vn -0.4374 0.4076 -0.8016
vn 0.1709 0.4378 -0.8827
vn 0.7459 0.2860 -0.6016
usemtl Hero.001
s 1
f 1/1/1 2/2/2 3/3/3 4/4/4
f 4/5/4 3/6/3 5/7/5 6/8/6
f 6/8/6 5/7/5 7/9/7 8/10/8
f 8/10/8 7/9/7 9/11/9 10/12/10
f 10/12/10 9/11/9 11/13/11 12/14/12
f 12/14/12 11/13/11 13/15/13 14/16/14
f 14/16/14 13/15/13 15/17/15 16/18/16
f 16/18/16 15/17/15 2/2/2 1/1/1
f 17/19/17 18/20/18 19/21/19 20/22/20
f 20/22/20 19/21/19 21/23/21 22/24/22
f 23/25/23 24/26/24 25/27/25 26/28/26
f 18/20/18 27/29/27 28/30/28 19/21/19
f 19/21/19 28/30/28 29/31/29 21/23/21
f 24/26/24 30/32/30 31/33/31 25/27/25
f 27/29/27 32/34/32 33/35/33 28/30/28
f 28/30/28 33/35/33 34/36/34 29/31/29
f 30/32/30 35/37/35 36/38/36 31/33/31
f 32/34/32 37/39/37 10/40/10 33/35/33
f 33/35/33 10/40/10 12/41/12 34/36/34
f 35/37/35 14/42/14 38/43/38 36/38/36
f 39/44/39 40/45/40 41/46/41 42/47/42
f 42/47/42 41/46/41 43/48/43 44/49/44
f 45/50/45 46/51/46 47/52/47 48/53/48
f 40/54/40 49/55/49 50/56/50 41/57/41
f 41/57/41 50/56/50 43/58/43
f 46/59/46 50/56/50 51/60/51 47/61/47
f 52/62/52 53/63/53 54/64/50 55/65/50
f 55/65/50 54/64/50 56/66/54 57/67/55
f 53/63/53 58/68/56 59/69/50 54/64/50
f 54/64/50 59/69/50 60/70/57 56/66/54
f 58/68/56 17/71/17 20/72/20 59/69/50
f 59/69/50 20/72/20 22/73/22
f 59/69/50 23/74/23 26/75/26 60/70/57
f 51/76/51 61/77/58 48/53/48 47/52/47
f 56/78/54 36/38/36 38/43/38 57/79/55
f 60/80/57 31/33/31 36/38/36 56/78/54
f 26/28/26 25/27/25 31/33/31 60/80/57
f 40/45/40 39/44/39 62/81/59 49/82/49
f 52/83/52 37/39/37 32/34/32 53/84/53
f 53/84/53 32/34/32 27/29/27 58/85/56
f 58/85/56 27/29/27 18/20/18 17/19/17
f 14/42/14 16/86/16 61/77/58 38/43/38
f 37/39/37 62/81/59 8/87/8 10/40/10
f 49/82/49 62/81/59 37/39/37 52/83/52
f 49/55/49 52/62/52 55/65/50 50/56/50
f 50/56/50 55/65/50 57/67/55 51/60/51
f 38/43/38 61/77/58 51/76/51 57/79/55
f 39/44/39 6/88/6 8/87/8 62/81/59
f 61/77/58 16/86/16 1/89/1 48/53/48
f 42/47/42 4/90/4 6/88/6 39/44/39
f 44/49/44 4/90/4 42/47/42
f 48/53/48 1/89/1 4/91/4 45/50/45
f 45/50/45 4/91/4 44/92/44
f 43/93/43 46/51/46 45/50/45 44/92/44
f 50/56/50 46/59/46 43/58/43
f 22/73/22 23/74/23 59/69/50
f 21/23/21 24/26/24 23/25/23 22/24/22
f 29/31/29 30/32/30 24/26/24 21/23/21
f 34/36/34 35/37/35 30/32/30 29/31/29
f 12/41/12 14/42/14 35/37/35 34/36/34
f 102/94/60 99/95/61 98/96/62 96/97/63 101/98/64 100/99/65 95/100/66 97/101/67
f 71/102/68 72/103/69 70/104/70 64/105/71
f 72/103/69 73/106/72 69/107/73 70/104/70
f 73/108/72 74/109/74 68/110/75 69/111/73
f 74/109/74 75/112/76 67/113/77 68/110/75
f 75/112/76 76/114/78 66/115/79 67/113/77
f 76/114/78 77/116/80 65/117/81 66/115/79
f 77/116/80 78/118/82 63/119/83 65/117/81
f 71/102/68 64/105/71 63/119/83 78/118/82
f 79/120/84 78/118/82 77/116/80 80/121/85
f 81/122/86 80/121/85 77/116/80 76/114/78
f 82/123/87 81/122/86 76/114/78 75/112/76
f 83/124/88 82/123/87 75/112/76 74/109/74
f 84/125/89 83/124/88 74/109/74 73/108/72
f 85/126/90 84/127/89 73/106/72 72/103/69
f 86/128/91 85/126/90 72/103/69 71/102/68
f 79/120/84 86/128/91 71/102/68 78/118/82
f 11/13/11 87/129/92 88/130/93 13/15/13
f 15/17/15 13/15/13 88/130/93 89/131/94
f 2/2/2 15/17/15 89/131/94 90/132/95
f 3/3/3 2/2/2 90/132/95 91/133/96
f 5/7/5 3/6/3 91/134/96 92/135/97
f 7/9/7 5/7/5 92/135/97 93/136/98
f 9/11/9 7/9/7 93/136/98 94/137/99
f 11/13/11 9/11/9 94/137/99 87/129/92
f 87/129/92 80/121/85 81/122/86 88/130/93
f 89/131/94 88/130/93 81/122/86 82/123/87
f 90/132/95 89/131/94 82/123/87 83/124/88
f 91/133/96 90/132/95 83/124/88 84/125/89
f 92/135/97 91/134/96 84/127/89 85/126/90
f 93/136/98 92/135/97 85/126/90 86/128/91
f 94/137/99 93/136/98 86/128/91 79/120/84
f 87/129/92 94/137/99 79/120/84 80/121/85
f 64/138/71 70/139/70 102/94/60 97/101/67
f 70/139/70 69/140/73 99/95/61 102/94/60
f 69/140/73 68/141/75 98/96/62 99/95/61
f 68/141/75 67/142/77 96/97/63 98/96/62
f 67/143/77 66/144/79 101/98/64 96/145/63
f 66/146/79 65/147/81 100/99/65 101/98/64
f 65/147/81 63/148/83 95/100/66 100/99/65
f 63/148/83 64/138/71 97/101/67 95/100/66
